<svg width="140" height="140" viewBox="0 0 140 140" fill="none" xmlns="http://www.w3.org/2000/svg">
<path d="M113.104 46.5631C113.104 46.5631 107.955 45.5897 102.714 45.3556C102.878 45.2262 103.018 45.0684 103.127 44.8897L102.784 44.8262C105.074 44.3428 109.39 43.1309 105.746 41.0769C105.746 41.0769 100.463 38.2419 95.4402 38.6269C101.436 34.5778 108.246 29.2709 103.873 28.63C103.873 28.63 103.016 28.8772 101.62 29.3431C103.269 27.4378 106.677 23.0256 101.81 24.0078C101.81 24.0078 97.8727 24.9725 95.0924 26.0509C97.1662 23.1984 101.797 16.4784 98.6952 17.395C98.6952 17.395 89.3327 18.9394 83.2515 28.3544C83.2515 28.3544 91.2993 5.9303 84.5618 12.7772C84.5618 12.7772 81.0662 15.1462 79.5524 18.4712C79.4693 17.675 79.0865 17.4606 78.299 18.0928L77.9424 19.4819C78.7824 15.4197 79.2177 12.3244 78.5965 12.1603C78.5965 12.1603 78.1152 7.62561 72.7405 21.0197C71.6971 14.5228 68.009 -5.91283 65.2855 9.16561C64.5484 8.79592 63.6887 9.01905 62.8727 10.8259C62.8727 10.8259 62.3609 12.869 62.0284 16.1744C61.3502 14.4309 60.2215 12.8997 58.384 12.869C56.6799 9.06061 54.8512 7.10936 53.5627 11.7403L53.3068 14.2319L53.484 14.5797C52.5149 15.6494 51.3905 18.5981 54.5493 26.6241C54.5493 26.6241 55.0612 28.1291 55.8793 30.1153C51.3359 22.5509 45.2065 13.604 42.4327 14.9909C42.4327 14.9909 40.5405 17.9178 44.8149 22.4634C44.8149 22.4634 44.8499 22.505 44.8784 22.564C43.8918 21.6803 43.0452 21.1837 42.4196 21.2647C42.4196 21.2647 42.6427 27.3766 47.0505 33.95C41.0218 28.0219 31.9262 19.6284 34.3587 25.4603C34.3587 25.4603 35.1221 27.9562 36.7037 30.2094C31.6199 27.5669 28.3715 26.7225 31.539 31.1412C31.539 31.1412 34.0524 33.4119 37.4846 36.1616C28.6274 33.9894 26.7112 36.1637 26.7112 36.1637C27.8902 38.1194 29.7584 39.6594 31.9524 40.8712C24.1737 40.4819 18.5408 41.2147 26.9387 45.6378C23.0952 45.7712 21.2752 46.62 26.4902 49.1444C26.4902 49.1444 31.0468 50.3147 36.0562 51.1503C31.4165 51.8831 27.4221 53.1059 26.499 55.1162C26.499 55.1162 20.503 58.8 28.1134 58.4303C25.0749 59.4037 24.1102 60.3859 27.4549 61.1909C27.4549 61.1909 31.3487 61.1647 36.2027 60.7797C27.7437 63.8597 18.1296 68.0466 27.0283 68.3812C27.0283 68.3812 27.5359 68.2894 28.3759 68.1297C26.4749 69.0944 25.0268 70.2538 24.7883 71.6034C24.7883 71.6034 27.3696 72.3253 29.8874 71.7872C29.9115 72.4828 30.5043 73.0122 31.913 73.29C31.913 73.29 37.6312 70.8225 43.4915 67.7425C42.9293 68.1625 42.3627 68.5891 41.8224 69.0091C41.7349 68.985 41.6627 68.9587 41.5752 68.95C41.5752 68.95 24.5937 82.5847 35.063 79.59C35.063 79.59 37.349 78.6319 39.8296 77.2713C35.7849 81.2919 32.928 85.2928 41.1224 82.4162C41.1224 82.4162 45.1955 79.3866 48.9624 75.6284C43.6009 84.0853 39.3637 91.9822 46.8143 85.5269C46.8143 85.5269 51.3905 80.7603 55.2055 75.4009C51.3074 84.0022 47.7637 93.2969 53.5737 87.8019C53.5737 87.8019 56.203 85.6953 59.0359 80.8784C57.1109 87.5503 56.2577 93.4653 59.773 92.2162C59.773 92.2162 60.3899 90.8491 61.2671 88.725C61.2584 92.0894 62.1662 94.2288 64.7037 93.6841C64.7037 93.6841 68.3043 85.6144 69.3259 77.2559C70.0696 82.4228 71.7605 87.9112 75.4793 90.7222C75.4793 90.7222 76.4943 90.0178 76.8552 87.0713C78.6905 90.125 84.2774 98.7831 84.0937 90.3525C84.0937 90.3525 83.5665 83.9759 82.068 78.5137C86.0559 83.4291 90.3696 87.0888 92.8765 84.1772C96.4093 86.9203 103.042 91.2406 97.9252 80.4081C101.038 82.3484 103.11 82.6175 102.692 79.4019C102.692 79.4019 102.372 78.7981 101.773 77.7831C103.901 78.5794 106.548 79.0759 103.175 74.7447C103.175 74.7447 98.5793 69.4006 94.143 67.1606C92.2071 64.9512 90.0437 62.7966 87.644 60.9853C97.5184 65.0453 112.002 70.2581 112.035 65.9181C112.035 65.9181 109.974 62.3262 102.878 59.2812C105.006 59.2674 107.132 59.1806 109.254 59.0209C109.254 59.0209 112.179 58.3822 105.315 54.2041C105.315 54.2041 104.066 53.5828 102.154 52.7669C106.395 51.5659 115.322 48.7025 113.091 46.5391L113.104 46.5631ZM53.3746 50.0631C53.3746 50.0631 53.1187 50.0544 52.6659 50.0544C53.0684 50.0041 53.4468 49.9187 53.8034 49.8159C53.7727 49.9931 53.7355 50.1637 53.7115 50.3497C53.6084 50.2438 53.4956 50.1479 53.3746 50.0631ZM81.8996 50.8134L81.8909 50.5794L82.0505 50.7041C82.0046 50.7478 81.9455 50.7762 81.8996 50.8134ZM81.8252 49.9778L81.8165 49.8816C81.9696 49.8641 82.1512 49.8378 82.3349 49.8181L81.8252 49.9778ZM77.8221 41.5166L77.8199 41.4859L78.0846 41.2562C77.9976 41.3372 77.9165 41.4241 77.8418 41.5166H77.8221ZM58.1565 41.265C58.1443 41.2298 58.1258 41.1972 58.1018 41.1687C58.1385 41.1852 58.1737 41.2049 58.2068 41.2278C58.1937 41.2322 58.174 41.2519 58.1565 41.265ZM54.1905 55.9541C54.1927 56.0634 54.254 56.1881 54.2802 56.2887C54.1757 56.2616 54.0721 56.2309 53.9696 56.1969C54.0505 56.1225 54.1205 56.0394 54.1905 55.9541ZM83.7262 36.3453L82.1927 37.8962C81.8143 38.1434 81.4315 38.3994 81.0749 38.6553L83.7262 36.3453ZM74.0662 35.3959C73.819 36.4525 73.5827 37.4631 73.3727 38.4037C73.3443 38.3906 73.2984 38.3797 73.259 38.3622C73.469 37.6206 73.7402 36.6034 74.0662 35.3959ZM64.008 37.8416L63.984 37.8459C63.5509 36.6537 62.2668 33.1384 60.7618 29.1484L62.8727 33.4009C63.179 34.8622 63.5552 36.3453 64.008 37.8416ZM61.7484 21.1706C61.7396 21.6912 61.7484 22.2403 61.7484 22.7806C61.2248 20.8558 60.6427 18.9474 60.0027 17.0581L61.7484 21.1706ZM61.2737 38.9703C61.1818 39.0119 61.1052 39.0666 61.0177 39.1037C60.9215 38.9266 60.8077 38.7231 60.6896 38.4869C60.8843 38.6837 61.0768 38.8325 61.2737 38.9703ZM50.5724 38.2222C50.8415 38.5 51.1521 38.7756 51.4496 39.0534C50.6862 38.5547 49.8724 38.0209 49.0084 37.4762L50.5724 38.2222ZM53.6962 53.2962C53.7159 53.4734 53.7509 53.6397 53.7684 53.8256C53.4315 53.8672 53.029 53.9175 52.5521 53.9853C52.9552 53.7938 53.3384 53.563 53.6962 53.2962ZM47.2452 59.1609C47.0112 59.2878 46.7837 59.4037 46.5452 59.5372C46.5452 59.4628 46.5627 59.395 46.5627 59.3184C46.7924 59.2681 47.009 59.22 47.2452 59.1609ZM55.5927 59.3184C55.619 59.3775 55.6562 59.4366 55.6934 59.4956C55.5555 59.5809 55.409 59.6728 55.2624 59.7712C55.3784 59.6137 55.4921 59.4628 55.5927 59.3184ZM55.1815 66.2003C55.1815 66.1653 55.199 66.1237 55.199 66.0909C55.2493 66.0406 55.2996 66.0056 55.3455 65.9553C55.2996 66.0319 55.2405 66.115 55.1815 66.2003ZM60.3046 64.295C60.3637 64.3453 60.4402 64.3869 60.4971 64.4219C60.438 64.5487 60.3593 64.7062 60.2871 64.8681C60.2915 64.6734 60.3046 64.4787 60.3046 64.295ZM68.8796 66.4256C68.8752 66.6684 68.8555 66.955 68.8512 67.2634C68.7616 66.9863 68.6697 66.71 68.5755 66.4344C68.6696 66.4344 68.779 66.4344 68.8796 66.4256ZM86.034 70.8991C85.708 70.4287 85.358 69.9672 85.0146 69.4881C85.5396 69.9912 86.0624 70.5031 86.6115 71.0237L86.034 70.8991ZM80.6002 58.0103C80.6002 58.0016 80.6134 57.9928 80.6024 57.9753H80.6155L80.5805 58.0103" fill="#FAAA33"/>
<path d="M76.4177 132.772C76.4183 133.694 76.2372 134.607 75.8848 135.459C75.5324 136.311 75.0156 137.085 74.3639 137.737C73.7122 138.39 72.9384 138.907 72.0867 139.26C71.235 139.613 70.3222 139.794 69.4002 139.794C68.4771 139.796 67.5627 139.615 66.7094 139.263C65.8561 138.911 65.0805 138.394 64.4272 137.742C63.7738 137.09 63.2554 136.315 62.9016 135.462C62.5478 134.61 62.3655 133.696 62.3652 132.772V85.0544C62.3652 83.188 63.1062 81.3979 64.4253 80.0776C65.7445 78.7572 67.5338 78.0146 69.4002 78.0128C71.2643 78.0169 73.0505 78.7608 74.3664 80.0812C75.6822 81.4015 76.4201 83.1903 76.4177 85.0544V132.772Z" fill="#78B153"/>
<path d="M76.418 85.7325C76.418 85.7325 71.7148 92.0522 62.3633 90.8841L62.4136 82.2828H72.8655L76.2998 82.9194L76.418 85.7325Z" fill="#5E8D3F"/>
<path d="M73.4516 130.104C73.9613 130.447 84.3891 138.158 111.153 112.836C135.325 89.9784 125.757 103.639 137.033 98.0415C137.033 98.0415 137.668 96.4622 133.159 93.8109C133.159 93.8109 109.943 85.354 73.4407 114.955L73.4516 130.104ZM65.3403 130.104C64.8372 130.447 54.4072 138.158 27.6366 112.836C3.48658 89.9784 13.0416 103.639 1.76064 98.0437C1.76064 98.0437 1.13064 96.4644 5.62814 93.8131C5.62814 93.8131 28.8572 85.3562 65.3469 114.957" fill="#78B153"/>
<path d="M34.1945 112.844C10.0226 89.985 19.5863 103.646 8.30978 98.0503C8.30978 98.0503 7.67103 96.4709 12.1795 93.8109C12.1795 93.8109 14.1045 93.1241 17.7073 92.8309C9.92853 92.26 5.63009 93.8109 5.63009 93.8109C1.13259 96.4709 1.76259 98.0503 1.76259 98.0503C13.0435 103.648 3.48197 89.985 27.6429 112.844C47.7089 131.823 58.5742 132.25 62.9929 131.119C56.9707 129.959 47.6585 125.589 34.1857 112.844" fill="#5E8D3F"/>
<path d="M123.208 46.4122C123.208 46.4122 117.694 45.3709 112.087 45.115C112.264 44.9786 112.414 44.8111 112.531 44.6206L112.166 44.5528C114.616 44.0366 119.229 42.7394 115.338 40.5431C115.338 40.5431 109.687 37.5047 104.313 37.9203C110.733 33.5869 118.011 27.9147 113.329 27.2212C113.329 27.2212 112.426 27.4903 110.923 27.9847C112.699 25.9503 116.333 21.2319 111.124 22.2797C111.124 22.2797 106.909 23.3078 103.943 24.4628C106.159 21.4112 111.114 14.2209 107.795 15.2075C107.795 15.2075 97.772 16.8569 91.2773 26.9325C91.2773 26.9325 99.9026 2.94437 92.6882 10.2681C92.6882 10.2681 88.9542 12.8034 87.3267 16.3603C87.2392 15.5094 86.8279 15.2775 85.9857 15.9578C85.9857 15.9578 85.8436 16.5244 85.6029 17.4431C86.502 13.0966 86.9679 9.78687 86.3117 9.60968C86.3117 9.60968 85.7845 4.76 80.0489 19.0859C78.9201 12.1384 74.9782 -9.71907 72.071 6.40937C71.277 6.01125 70.3539 6.25406 69.4723 8.19218C69.4723 8.19218 68.9386 10.3753 68.5798 13.9059C67.8492 12.0378 66.6461 10.4016 64.6817 10.3731C62.8639 6.3 60.9017 4.21093 59.5214 9.16343L59.2479 11.8322L59.4361 12.2062C58.3948 13.3459 57.1961 16.4981 60.5757 25.0862C60.5757 25.0862 61.1292 26.7006 61.9976 28.8203C57.1304 20.7309 50.5789 11.1672 47.6126 12.6459C47.6126 12.6459 45.5936 15.7762 50.1786 20.6347C50.1786 20.6347 50.1961 20.6806 50.2332 20.7441C49.1767 19.7947 48.2667 19.2675 47.6039 19.355C47.6039 19.355 47.8379 25.8912 52.5542 32.9219C46.1098 26.5825 36.3842 17.6094 38.9764 23.8437C38.9764 23.8437 39.8032 26.5125 41.4854 28.9187C36.0495 26.0925 32.5714 25.1891 35.9642 29.9141C35.9642 29.9141 38.6526 32.3422 42.3167 35.2909C32.847 32.9634 30.7864 35.2931 30.7864 35.2931C32.0573 37.3822 34.0545 39.0316 36.4082 40.3222C28.0848 39.9087 22.0473 40.6919 31.0379 45.4212C26.9276 45.5634 24.9829 46.4778 30.5632 49.1706C30.5632 49.1706 35.4304 50.4284 40.7876 51.3231C35.8329 52.1062 31.5542 53.4144 30.572 55.5625C30.572 55.5625 24.1539 59.5065 32.287 59.104C29.0517 60.1519 28.0082 61.2019 31.5914 62.0659C31.5914 62.0659 35.7586 62.0331 40.9473 61.6219C31.9064 64.9184 21.6164 69.4006 31.1342 69.7616L32.5692 69.4925C30.5545 70.525 28.9948 71.7587 28.7345 73.2025C28.7345 73.2025 31.4951 73.9812 34.1923 73.4037C34.2164 74.1431 34.8507 74.7141 36.3557 75.005C36.3557 75.005 42.472 72.3712 48.7501 69.0725C48.142 69.5275 47.5382 69.9869 46.9498 70.4244C46.8601 70.4069 46.7857 70.3828 46.6851 70.3653C46.6851 70.3653 28.5267 84.9559 39.7245 81.7512C39.7245 81.7512 42.1701 80.7275 44.8148 79.275C40.4967 83.5712 37.4386 87.8522 46.2039 84.7809C46.2039 84.7809 50.5636 81.5347 54.5929 77.5162C48.8661 86.5616 44.3314 95.0097 52.3026 88.1037C52.3026 88.1037 57.1895 83.0112 61.2845 77.2734C57.102 86.4675 53.3132 96.4206 59.5214 90.5297C59.5214 90.5297 62.3367 88.2744 65.362 83.1206C63.3057 90.2628 62.3914 96.5869 66.167 95.2547C66.167 95.2547 66.8211 93.7934 67.7529 91.5206C67.7442 95.1125 68.722 97.4006 71.4279 96.8144C71.4279 96.8144 75.2845 88.1912 76.3804 79.2487C77.1679 84.7766 78.9836 90.65 82.9867 93.6556C82.9867 93.6556 84.0607 92.9075 84.4589 89.7531C86.4145 93.0256 92.3842 102.287 92.1873 93.2619C92.1873 93.2619 91.6229 86.4412 90.0173 80.6006C94.2851 85.8615 98.9007 89.7619 101.594 86.6665C105.369 89.5934 112.468 94.209 106.984 82.6284C110.315 84.7022 112.529 84.9778 112.076 81.5478C112.076 81.5478 111.746 80.9003 111.109 79.8197C113.382 80.675 116.21 81.2044 112.608 76.5647C112.608 76.5647 107.686 70.8509 102.937 68.4512C100.874 66.0931 98.5617 63.7853 95.9892 61.845C106.544 66.2003 122.042 71.7719 122.079 67.1322C122.079 67.1322 119.87 63.2887 112.288 60.0337C114.414 60.0162 116.663 59.9419 119.118 59.7494C119.118 59.7494 122.239 59.069 114.891 54.6065C114.891 54.6065 113.559 53.935 111.505 53.0644C116.057 51.765 125.599 48.7091 123.224 46.3925L123.208 46.4122ZM59.3267 50.1637C59.3267 50.1637 59.0576 50.155 58.572 50.155C59.0051 50.1003 59.4032 50.0084 59.7839 49.8947C59.7598 50.0828 59.7161 50.2622 59.6964 50.4656C59.5826 50.3562 59.4776 50.2644 59.3267 50.1637ZM89.8489 50.9644C89.8401 50.8812 89.8401 50.8003 89.8314 50.7084L90.0107 50.8462C89.9582 50.8944 89.8926 50.9272 89.8489 50.9644ZM89.7679 50.0719C89.7592 50.0369 89.7592 49.9997 89.7526 49.9669C89.9232 49.9472 90.1114 49.9209 90.3104 49.9012L89.7679 50.0719ZM85.4892 41.0178C85.4761 41.0069 85.4629 41.0025 85.452 40.985L85.7407 40.7422C85.6532 40.8297 85.5657 40.9172 85.4892 41.0178ZM64.4323 40.7487C64.4301 40.7072 64.3907 40.6809 64.3689 40.6437C64.4104 40.6612 64.4367 40.6809 64.4782 40.7072C64.4586 40.7116 64.4454 40.7334 64.4323 40.7487ZM60.1776 56.4703C60.2126 56.5884 60.2498 56.7131 60.2782 56.8225C60.1732 56.7984 60.0486 56.7547 59.9501 56.7219C60.0311 56.6475 60.1032 56.5556 60.1776 56.4703ZM91.7782 35.4856L90.1376 37.1459C89.7351 37.4106 89.3282 37.6884 88.9498 37.9597L91.7782 35.4856ZM81.4445 34.4728C81.1798 35.6016 80.9217 36.6822 80.7007 37.6906C80.6679 37.6731 80.622 37.66 80.5804 37.6447C80.8036 36.8528 81.0967 35.7612 81.4445 34.4728ZM70.6929 37.0869L70.6579 37.0912C70.1876 35.8159 68.8204 32.0578 67.2126 27.79L69.4657 32.3378C69.7939 33.8975 70.2007 35.4856 70.6929 37.0869ZM68.2582 19.2522C68.2539 19.81 68.2582 20.3984 68.2582 20.9781C67.7639 19.1603 67.1207 16.975 66.3945 14.8575L68.2582 19.2544V19.2522ZM67.7551 38.2966C67.6698 38.3425 67.5823 38.3972 67.4817 38.4387C67.3811 38.2506 67.2673 38.0319 67.1295 37.7803C67.3439 37.9925 67.5451 38.15 67.7551 38.2966ZM56.3014 37.5003C56.6032 37.7934 56.927 38.0931 57.2507 38.3862C56.4282 37.8525 55.5598 37.2837 54.6323 36.6997L56.3014 37.5003ZM59.6636 53.6222C59.6767 53.8147 59.7095 53.9897 59.727 54.1844C59.3748 54.2347 58.9439 54.285 58.4298 54.3615C58.9023 54.1253 59.3223 53.8803 59.6636 53.6222ZM52.7445 59.8959C52.5017 60.0316 52.2589 60.1562 51.9986 60.3006C52.0073 60.224 52.0292 60.1497 52.0292 60.0666C52.2632 60.014 52.5017 59.9637 52.7445 59.8959ZM61.6804 60.0644C61.7111 60.1234 61.7526 60.189 61.7898 60.2569C61.6339 60.3513 61.48 60.449 61.3282 60.55C61.4486 60.3837 61.5754 60.2241 61.6804 60.0644ZM61.2451 67.4231C61.2539 67.3816 61.2473 67.3465 61.2473 67.3137C61.302 67.2547 61.3567 67.2219 61.4157 67.1628C61.3501 67.2481 61.2845 67.34 61.2254 67.4231H61.2451ZM66.6964 65.3931C66.7686 65.4434 66.8429 65.485 66.9151 65.5266C66.8331 65.6836 66.7565 65.8434 66.6854 66.0056C66.692 65.7956 66.7007 65.5856 66.6964 65.3931ZM75.8751 67.6681C75.8664 67.9372 75.8489 68.2391 75.8401 68.565C75.7457 68.2701 75.648 67.9762 75.547 67.6834C75.6564 67.6747 75.7657 67.6747 75.8751 67.6681ZM94.2261 72.4566C93.8729 71.9458 93.509 71.4425 93.1345 70.9472C93.6923 71.4853 94.2611 72.03 94.8495 72.5834L94.2261 72.4566ZM88.4095 58.6644C88.4095 58.6556 88.427 58.6469 88.4401 58.6294H88.4532L88.4095 58.6644Z" fill="#FAAA33"/>
<path d="M79.0872 13.7725C79.47 11.3597 79.5575 9.73656 79.1003 9.62062C79.1003 9.62062 78.9625 8.37375 78.0766 9.02562C78.455 10.5962 78.7853 12.2303 79.0872 13.7725ZM80.0366 19.0881C81.2375 16.0803 82.1956 13.9541 82.9963 12.4097C81.955 13.4509 80.8306 14.7963 80.1263 16.3625C80.0606 15.7762 79.8419 15.5116 79.435 15.6122C79.6756 16.9444 79.8813 18.1519 80.0366 19.0881ZM75.8803 67.6856C75.771 67.6922 75.6616 67.6922 75.5544 67.7009C75.655 67.9941 75.7513 68.2806 75.8475 68.5825C75.8541 68.2544 75.8716 67.9525 75.8803 67.6856ZM80.5681 37.6644C80.6097 37.6797 80.6556 37.6928 80.6885 37.7103C80.9094 36.7041 81.1675 35.6213 81.4322 34.4925C81.0822 35.7809 80.7891 36.8725 80.5681 37.6644ZM67.4694 38.4584C67.57 38.4169 67.6575 38.3622 67.7428 38.3163C67.52 38.1623 67.3107 37.9896 67.1172 37.8C67.255 38.0516 67.3666 38.2681 67.4694 38.4584ZM64.6694 10.3753C66.6316 10.4037 67.8369 12.04 68.5675 13.9081C68.9285 10.3753 69.46 8.19437 69.46 8.19437C69.7531 7.54906 70.0485 7.11594 70.3416 6.80531C68.69 0.662809 66.601 -3.17844 64.8619 6.41156C64.2406 6.10531 63.5406 6.19281 62.845 7.18375C63.4531 7.90781 64.0613 9.02781 64.6694 10.3753ZM66.9181 65.5441C66.846 65.5025 66.7716 65.4609 66.6994 65.4106C66.7038 65.6031 66.695 65.8131 66.6863 66.0231C66.7672 65.8459 66.8481 65.6797 66.9181 65.5441ZM66.3822 14.875C67.1085 16.9947 67.7494 19.18 68.246 20.9956C68.246 20.4159 68.2416 19.8297 68.246 19.2697L66.3822 14.8728V14.875ZM70.6785 37.1066C70.1995 35.5426 69.7907 33.958 69.4535 32.3575L67.2003 27.8097C68.8081 32.0775 70.1753 35.8356 70.6456 37.1109L70.6785 37.1066ZM91.2672 26.9413C93.7022 23.1349 97.0509 19.9983 101.008 17.8172C101.89 16.03 102.108 14.7678 100.595 15.2162C100.595 15.2162 97.8056 15.6822 94.2313 17.5853C92.9713 22.2141 91.2672 26.9413 91.2672 26.9413ZM86.3016 9.61187C86.9578 9.78906 86.4919 13.0987 85.5928 17.4453L85.9756 15.96C86.82 15.2797 87.2291 15.5116 87.3166 16.3625C87.3472 16.3013 87.38 16.2488 87.4063 16.1897C88.6225 11.3816 89.0797 7.2625 86.2841 9.54844L86.3016 9.61187ZM90.1122 37.1656L91.7528 35.5053L88.9244 37.9794C89.3028 37.7059 89.7097 37.4303 90.1122 37.1656ZM94.8547 72.6009C94.279 72.0597 93.7074 71.5143 93.1397 70.9647C93.5181 71.4678 93.8791 71.9622 94.2313 72.4741L94.8547 72.6009ZM89.7403 49.9866C89.7469 50.0216 89.7469 50.0588 89.7556 50.0916L90.2981 49.9188C90.0991 49.9209 89.9109 49.9647 89.7403 49.9866ZM88.4585 58.6469H88.4453C88.4322 58.6644 88.4147 58.6731 88.4147 58.6819L88.4585 58.6469ZM90.0028 50.8681L89.8234 50.7303C89.8322 50.8222 89.8322 50.9031 89.841 50.9863C89.8847 50.9469 89.9503 50.9141 90.0028 50.8681ZM64.4638 40.7269C64.4222 40.7006 64.396 40.6809 64.3544 40.6634C64.3566 40.7006 64.396 40.7269 64.4178 40.7684C64.431 40.7531 64.4441 40.7313 64.4638 40.7269ZM106.564 23.5528C106.731 22.8091 106.492 22.26 105.56 22.1506C104.968 23.0234 104.394 23.8328 103.933 24.4628C104.751 24.1478 105.665 23.8328 106.564 23.5528ZM85.7372 40.7597L85.4485 41.0025C85.4594 41.02 85.4725 41.0047 85.4856 41.0353C85.5622 40.9369 85.6497 40.8494 85.7372 40.7597ZM95.9725 61.8538C97.7881 63.2297 99.4375 64.8156 101.004 66.4431C107.249 68.4972 112.783 69.6894 114.376 68.2128C108.995 66.9813 101.748 64.2469 95.9725 61.8538ZM43.035 20.7463C41.9785 19.7969 41.0728 19.2697 40.4013 19.3572C40.4013 19.3572 40.4713 20.6412 40.9175 22.6209C43.7941 24.5175 48.7422 29.1703 52.5463 32.9241C47.83 25.8934 47.596 19.3572 47.596 19.3572C47.9525 19.3069 48.3966 19.4578 48.88 19.7422C45.52 15.0981 42.2738 11.7162 40.4166 12.6481C40.4166 12.6481 38.3953 15.7784 42.9716 20.6369C42.9716 20.6369 43.0022 20.6828 43.035 20.7463ZM46.1981 84.8006C44.5903 85.3628 43.4003 85.6669 42.5144 85.7828C40.0491 90.4794 39.7822 92.7391 45.1088 88.1213C45.1088 88.1213 48.6875 84.396 52.2772 79.7147C49.055 82.6613 46.1981 84.8006 46.1981 84.8006ZM46.6816 70.385C46.7822 70.4025 46.8566 70.4266 46.9463 70.4441C47.5347 70.0088 48.1363 69.5472 48.7466 69.0922C42.4706 72.3909 36.3522 75.0247 36.3522 75.0247C35.6435 74.8825 35.1403 74.6813 34.7838 74.4297C30.3235 78.4831 25.2944 83.8447 32.535 81.771C32.535 81.771 34.5825 80.9047 36.9319 79.6556C39.476 76.1753 46.6728 70.385 46.6728 70.385H46.6816ZM44.8091 79.2969C42.1666 80.7494 39.7188 81.7731 39.7188 81.7731C36.2844 82.7553 35.6128 82.0597 36.3391 80.6247C32.7931 84.4069 31.1525 87.5547 39.0122 84.8028C39.0122 84.8028 40.2022 83.9147 41.9019 82.495C42.6741 81.5194 43.7022 80.4038 44.8091 79.2969ZM32.2747 73.6334C30.3278 73.6772 28.7288 73.2222 28.7288 73.2222C28.9891 71.7785 30.5488 70.5447 32.5635 69.5122L31.1285 69.7813C21.6085 69.4203 31.9006 64.9403 40.9416 61.6416C37.2622 61.9347 34.1253 62.0353 32.5985 62.0769C23.8725 65.3078 14.8316 69.4269 23.9403 69.7791L25.3841 69.51C23.3497 70.5425 21.801 71.7763 21.545 73.22C21.545 73.22 24.3013 73.9988 26.9985 73.4213C27.0247 74.1606 27.6569 74.7316 29.1685 75.0225C29.1641 75.0225 30.4022 74.4888 32.2747 73.6334ZM90.0028 80.6225C90.6591 83.0047 91.1381 85.5488 91.4772 87.7297C92.5797 87.9135 93.5706 87.6291 94.3844 86.6885C97.5803 89.1713 103.156 92.8397 101.437 86.8241C98.7244 89.6416 94.2028 85.7894 90.0028 80.6225ZM84.4422 89.7772C84.0441 92.9316 82.97 93.6797 82.97 93.6797C78.98 90.6741 77.1644 84.8006 76.3638 79.2728C75.8169 83.7178 74.5919 88.0885 73.4938 91.3544C74.1675 92.2338 74.9047 93.0322 75.76 93.6775C75.76 93.6775 76.845 92.9294 77.2322 89.775C79.1988 93.0475 85.1706 102.309 84.965 93.2838C84.965 93.2838 84.8666 92.0085 84.6216 90.0856C84.5569 89.9836 84.4935 89.8808 84.4313 89.7772H84.4422ZM23.3672 49.1881C23.3672 49.1881 28.2388 50.4459 33.5916 51.3406C28.6413 52.1238 24.3625 53.4319 23.376 55.58C23.376 55.58 16.9556 59.5241 25.0997 59.1216C21.8535 60.1694 20.821 61.2194 24.3953 62.0834C24.3953 62.0834 27.0641 62.0659 30.7697 61.8406C28.2563 61.0269 29.3478 60.0797 32.2835 59.1216C24.1503 59.5241 30.5685 55.58 30.5685 55.58C31.5506 53.4319 35.8294 52.1238 40.7841 51.3406C35.4269 50.4459 30.5597 49.1881 30.5597 49.1881C24.9794 46.4953 26.9219 45.5809 31.0344 45.4388C22.0438 40.7094 28.0813 39.9263 36.4047 40.3397C34.051 39.0491 32.0538 37.3997 30.7828 35.3106C30.7828 35.3106 31.1197 34.9453 32.0713 34.6566C25.2113 33.495 23.6013 35.3106 23.6013 35.3106C24.8591 37.3997 26.8606 39.0491 29.2056 40.3397C20.8866 39.9263 14.8622 40.7094 23.8441 45.4388C19.7338 45.5809 17.7869 46.4953 23.3672 49.1881ZM65.3585 83.1469C62.3331 88.2984 59.5178 90.556 59.5178 90.556C57.6847 92.3016 56.7397 92.6297 56.4006 92.026C56.3131 94.5591 56.9891 95.9875 58.9644 95.281C58.9644 95.281 59.6272 93.8197 60.5613 91.5469C60.5547 95.1388 61.5216 97.4269 64.2319 96.8406C64.2319 96.8406 64.4747 96.3135 64.8444 95.3903C62.681 94.8019 63.5866 89.2894 65.3585 83.1469ZM56.9497 87.9966C57.851 85.0938 59.52 81.1344 61.27 77.2909C57.175 83.0288 52.2881 88.1213 52.2881 88.1213C50.8488 89.3725 49.825 90.101 49.1381 90.4378C48.7816 92.6472 49.5494 93.1831 52.3231 90.556C52.3231 90.556 55.1297 88.3006 58.1681 83.1469C57.6738 84.8531 57.2581 86.4872 56.9497 87.9966ZM61.2372 67.4406L61.4253 67.1803C61.3663 67.2394 61.3116 67.2722 61.2569 67.3313C61.2569 67.3663 61.246 67.3991 61.2372 67.4406ZM60.266 56.8422L60.1653 56.49C60.091 56.5753 60.0188 56.6672 59.9378 56.7416C60.0341 56.7766 60.1588 56.8181 60.266 56.8422ZM58.4153 54.3769C58.9272 54.3003 59.3603 54.25 59.7125 54.1997C59.695 54.0072 59.6622 53.83 59.6491 53.6375C59.2619 53.9221 58.8489 54.1697 58.4153 54.3769ZM51.3322 14.1619C54.5544 17.0734 58.6669 23.2947 61.9897 28.8203C61.483 27.5883 61.0089 26.3432 60.5678 25.0863C57.1881 16.4981 58.3869 13.3481 59.4281 12.2062L59.24 11.8322L59.3253 11.0359C58.796 10.6641 58.2053 10.3862 57.4835 10.3731C55.6613 6.3 53.7078 4.21094 52.3275 9.16344L52.0628 11.8322L52.2356 12.2062C51.8922 12.5847 51.5466 13.2191 51.3322 14.1619ZM61.6747 60.0819C61.5697 60.2416 61.445 60.4013 61.3225 60.5675C61.4866 60.4581 61.6331 60.3663 61.7841 60.2744C61.7469 60.2088 61.7053 60.1409 61.6747 60.0819ZM58.5575 50.1747C59.0453 50.1747 59.3122 50.1834 59.3122 50.1834C59.4631 50.2841 59.5681 50.3759 59.6819 50.4853C59.7016 50.2841 59.7453 50.1025 59.7694 49.9144C59.3734 50.0346 58.968 50.1217 58.5575 50.1747ZM56.2869 37.5178L54.6178 36.7172C55.5453 37.3013 56.4138 37.87 57.2363 38.4038C56.9152 38.1134 56.5988 37.818 56.2869 37.5178ZM54.5872 77.5381C54.2306 77.8881 53.8697 78.2338 53.5175 78.5706C53.161 79.3581 52.8175 80.1566 52.4697 80.9353C53.1435 79.8372 53.8522 78.6953 54.5872 77.5381ZM52.0125 60.0819C52.0169 60.1611 52.0066 60.2405 51.9819 60.3159C52.2422 60.1738 52.485 60.0469 52.7278 59.9113C52.4872 59.9813 52.2488 60.0316 52.0125 60.0819ZM33.9219 34.3131C35.6763 34.1666 38.3406 34.3131 42.3088 35.2953C40.1463 33.5568 38.0281 31.764 35.9563 29.9184C32.6969 25.3794 35.7747 26.0466 40.8519 28.6016C35.2672 23.4041 29.7503 18.9656 31.7825 23.8481C31.7825 23.8481 32.6006 26.5169 34.2916 28.9231C28.8513 26.0969 25.3797 25.1934 28.766 29.9184C28.766 29.9184 30.8856 31.8238 33.9219 34.3153" fill="#DB8F29"/>
<path d="M93.25 50.6822C93.25 63.8072 82.6034 74.4713 69.45 74.4713C56.325 74.4713 45.6719 63.8138 45.6719 50.6822C45.6719 37.5572 56.3206 26.8953 69.45 26.8953C82.5969 26.8953 93.25 37.5528 93.25 50.6822Z" fill="#71241B"/>
<path d="M65.547 50.2841C65.547 40.7181 71.2061 32.4997 79.3414 28.7175C76.2105 27.2584 72.7987 26.5006 69.3445 26.4972C56.2195 26.4972 45.5664 37.1525 45.5664 50.2841C45.5664 63.4309 56.213 74.0775 69.3445 74.0775C72.9277 74.0775 76.3052 73.2638 79.3414 71.8528C71.2061 68.0794 65.547 59.8544 65.547 50.2841Z" fill="#5B1A15"/>
</svg>
